<svg width="50" height="50" viewBox="0 0 50 50" fill="none" xmlns="http://www.w3.org/2000/svg">
<g clip-path="url(#clip0_961_1141)">
<path fill-rule="evenodd" clip-rule="evenodd" d="M25 0C11.2109 0 0 11.2109 0 25C0 38.7891 11.2109 50 25 50C38.7891 50 50 38.7891 50 25C50 11.2109 38.7891 0 25 0Z" fill="#FEC300"/>
<path d="M20.1855 36.4355C16.9922 33.2422 13.8184 30.0195 10.6152 26.8262C10.2637 26.4746 10.2637 25.8887 10.6152 25.5371L14.2969 21.8555C14.6484 21.5039 15.2344 21.5039 15.5859 21.8555L20.8496 27.1191L34.3848 13.5742C34.7461 13.2227 35.3223 13.2227 35.6836 13.5742L39.375 17.2656C39.7363 17.627 39.7363 18.2031 39.375 18.5547L21.4746 36.4355C21.123 36.7969 20.5469 36.7969 20.1855 36.4355Z" fill="white"/>
</g>
<defs>
<clipPath id="clip0_961_1141">
<rect width="50" height="50" fill="white"/>
</clipPath>
</defs>
</svg>
