<svg width="130" height="31" viewBox="0 0 130 31" fill="none" xmlns="http://www.w3.org/2000/svg">
<g id="logo">
<path d="M54.4786 13.6895C54.5292 25.85 54.5629 26.9632 54.8327 27.6716C55.2205 28.6836 56.0129 29.6112 56.8392 30.0329C58.5927 30.9267 62.1673 30.4883 64.1569 29.139L64.6797 28.7848L64.0727 26.4404C63.6005 24.5682 63.4151 24.1128 63.2127 24.1803C61.83 24.6525 61.5265 24.6863 61.2568 24.4164C61.1219 24.2815 60.9195 23.8599 60.8521 23.5057C60.7678 23.1515 60.6836 17.8216 60.6836 11.6655V0.5H54.428L54.4786 13.6895Z" fill="black"/>
<path d="M67.428 30.016H73.6667L73.7004 25.5127L73.751 20.9925L76.6848 25.5127L79.6187 30.016H83.6485C86.9365 30.016 87.6615 29.9823 87.5435 29.7967C87.4761 29.6787 85.908 27.3512 84.07 24.6357C82.2322 21.9201 80.7653 19.6095 80.799 19.4914C80.8496 19.3734 82.1816 17.4844 83.7665 15.2749C85.3516 13.0823 86.6498 11.2438 86.6498 11.1932C86.6498 11.1595 84.8794 11.1258 82.738 11.1258L78.8093 11.1426L73.751 19.2048L73.7004 9.86079L73.6667 0.5H67.428V30.016Z" fill="black"/>
<path d="M92.1297 1.22526C90.5953 1.93364 89.9209 3.16488 90.0727 4.98644C90.1738 6.35261 90.7471 7.28025 91.8599 7.87057C92.8378 8.3766 94.4565 8.41025 95.4008 7.92117C97.8626 6.67306 98.0649 3.04682 95.7717 1.51198C95.0299 1.00599 92.9559 0.854192 92.1297 1.22526Z" fill="black"/>
<path d="M39.1349 10.8559C35.8132 11.6655 32.9805 14.4653 32.1038 17.8048C31.8003 18.9518 31.7665 21.8359 32.0363 23.1345C32.7108 26.4234 35.3917 29.1896 38.7639 30.1172C40.2646 30.5389 43.9404 30.5389 45.5759 30.1341C46.7225 29.8473 48.4929 29.0715 49.0999 28.5992C49.437 28.3294 49.5046 28.5655 47.8521 24.3321L47.7172 23.9611L46.7899 24.3827C45.7276 24.8718 43.8898 25.2934 42.8106 25.2934C41.7147 25.2934 40.1297 24.8381 39.489 24.3489C39.1855 24.1129 38.7808 23.6237 38.5953 23.2527L38.2581 22.5949H50.8703L50.9715 22.2069C51.2075 21.3299 51.275 18.8842 51.0895 17.771C50.5163 14.4991 47.9195 11.7498 44.5474 10.8728C43.367 10.5692 40.3826 10.5692 39.1349 10.8559ZM43.4851 16.1856C44.2101 16.5567 44.598 17.029 44.8339 17.8554L44.9857 18.3782H38.0895L38.4098 17.7374C39.0674 16.4555 40.1128 15.8652 41.7653 15.8483C42.5071 15.8483 43.0299 15.9495 43.4851 16.1856Z" fill="black"/>
<path d="M110.896 11.0414C110.475 11.1764 109.733 11.5474 109.261 11.8679L108.401 12.4582V11.1258H102.162V30.016H108.401V17.8722L109.092 17.3832C110.829 16.1013 113.341 16.4724 114.134 18.1252C114.454 18.783 114.471 19.171 114.471 24.4164V30.016H120.878V24.1465C120.861 15.764 120.658 14.6003 118.787 12.7112C117.354 11.2776 116.393 10.9234 113.712 10.8559C112.245 10.8053 111.47 10.8559 110.896 11.0414Z" fill="black"/>
<path d="M0.236061 11.8341C0.370942 12.2389 1.1297 14.6003 1.92218 17.1133C2.73152 19.6095 3.97929 23.5393 4.7211 25.85L6.07004 30.016L8.80156 29.9823L11.5163 29.9317L13.2697 25.4621C14.214 22.9997 15.1077 20.6046 15.2425 20.1492C15.4786 19.2554 15.4954 19.2722 15.9001 20.7395C16.0518 21.2455 16.8781 23.5225 17.7549 25.7994L19.3398 29.9317H25.1738L27.8378 21.3299C29.3048 16.5904 30.6031 12.3739 30.738 11.9185L30.974 11.1258H24.6342L23.5214 15.7134C22.9144 18.2434 22.358 20.6889 22.2736 21.1612C22.1388 21.9539 22.1219 21.9707 22.0039 21.4985C21.9533 21.2118 21.1608 18.7662 20.2503 16.0676L18.6148 11.1258H12.8651L11.4487 15.4604C10.6732 17.8554 9.9144 20.301 9.76264 20.8913L9.49291 21.9877L9.27363 20.807C9.17246 20.1661 8.56546 17.7374 7.94163 15.4267L6.81197 11.2101L3.40596 11.1595L0 11.1258L0.236061 11.8341Z" fill="black"/>
<path d="M90.5279 30.016H96.7665V11.1258H90.5279V30.016Z" fill="black"/>
<path d="M127.091 29.9738C128.698 29.9738 130 28.6712 130 27.0644C130 25.4576 128.698 24.155 127.091 24.155C125.485 24.155 124.183 25.4576 124.183 27.0644C124.183 28.6712 125.485 29.9738 127.091 29.9738Z" fill="#FEC300"/>
</g>
</svg>
